<svg width="30" height="27" viewBox="0 0 30 27" fill="none" xmlns="http://www.w3.org/2000/svg">
<path fill-rule="evenodd" 
clip-rule="evenodd" d="M18.5662 0.849757C18.8291 0.770936 19.1135 0.765849 19.3798 0.835206C19.6461 0.904562 19.881 1.0449 20.0516 1.2366L29.3849 11.7232C29.567 11.9278 29.6658 12.1795 29.6658 12.4386C29.6658 12.6978 29.567 12.9495 29.3849 13.1541L20.0516 23.6407C19.8809 23.8322 19.6461 23.9723 19.3799 24.0416C19.1137 24.1108 18.8294 24.1057 18.5668 24.0269C18.3041 23.9481 18.0761 23.7996 17.9146 23.6021C17.7532 23.4046 17.6664 23.168 17.6662 22.9253V18.2762C10.4942 18.4067 7.04891 19.5963 5.31825 20.8897C3.67291 22.119 3.37158 23.565 3.05825 25.0797L2.97691 25.47C2.91708 25.7493 2.74252 25.9999 2.48606 26.1746C2.22961 26.3493 1.90894 26.4361 1.58439 26.4186C1.25984 26.4011 0.953782 26.2806 0.723795 26.0797C0.493807 25.8789 0.355744 25.6115 0.335581 25.3279C0.106247 22.126 0.450247 17.4862 3.03825 13.605C5.55025 9.83796 10.0729 6.94132 17.6662 6.63837V1.95202C17.6662 1.70925 17.7529 1.47253 17.9142 1.27491C18.0756 1.07729 18.3035 0.928655 18.5662 0.849757Z" fill="#fda34b"/>
</svg>
