<svg width="67" height="60" viewBox="0 0 67 60" fill="none" xmlns="http://www.w3.org/2000/svg">
<g clip-path="url(#clip0)">
<path fill-rule="evenodd" clip-rule="evenodd" d="M0 30C0 46.5685 14.7858 60 33.025 60C51.2642 60 66.05 46.5685 66.05 30C66.05 13.4315 51.2642 0 33.025 0C14.7858 0 0 13.4315 0 30ZM39.6114 17.88C44.116 19.2895 47.4104 21.4025 46.7631 25.3329C46.2946 28.2101 44.5388 29.6031 42.2076 30.0914C45.4086 31.6052 47.0374 33.9268 45.4857 37.9514C43.5601 42.9499 38.9855 43.3717 32.9017 42.3259L31.4252 47.7009L27.8576 46.8932L29.3146 41.5901C28.3899 41.3815 27.445 41.16 26.4715 40.92L25.0093 46.248L21.4456 45.4403L22.9221 40.0551C22.589 39.9776 22.2538 39.8981 21.9162 39.8183C21.4093 39.6981 20.8971 39.5767 20.3786 39.4587L15.7359 38.4074L17.507 34.6975C17.507 34.6975 20.1358 35.3326 20.1003 35.2855C21.1103 35.5126 21.5584 34.9145 21.7351 34.5158L24.0683 26.0188C24.1559 26.0379 24.2416 26.0574 24.3243 26.0763C24.3654 26.0856 24.4058 26.0947 24.4452 26.1037C24.303 26.052 24.174 26.0188 24.0744 25.9958L25.7389 19.9301C25.7825 19.2415 25.5214 18.3729 24.0765 18.0452C24.1323 18.0111 21.4852 17.46 21.4852 17.46L22.4343 13.9985L27.3545 15.1145L27.3505 15.1311C28.0902 15.2981 28.8523 15.4569 29.6287 15.6175L31.091 10.2951L34.6566 11.1028L33.2238 16.3209C34.181 16.5194 35.1444 16.7197 36.0823 16.932L37.5048 11.748L41.0726 12.5557L39.6114 17.88Z" fill="black"/>
<path d="M39.5227 24.8831C38.5745 28.3706 32.7218 26.5987 30.8232 26.1644L32.4976 20C34.3961 20.4344 40.5103 21.2451 39.5227 24.8831Z" fill="black"/>
<path d="M38.4138 35.681C37.32 39.6019 29.9198 37.4822 27.5205 36.9507L29.464 30C31.8633 30.5342 39.5569 31.5917 38.4138 35.681Z" fill="black"/>
</g>
<defs>
<clipPath id="clip0">
<rect width="66.05" height="60" fill="white"/>
</clipPath>
</defs>
</svg>
