<svg width="64" height="60" viewBox="0 0 64 60" fill="none" xmlns="http://www.w3.org/2000/svg">
<path d="M30 3.75H10C6.6 3.75 4 6.1875 4 9.375V46.875C4 50.0625 6.6 52.5 10 52.5H14C15.2 52.5 16 51.75 16 50.625C16 49.5 15.2 48.75 14 48.75H10C8.8 48.75 8 48 8 46.875V9.375C8 8.25 8.8 7.5 10 7.5H12V8.0625C12 10.875 14.4 13.125 17.4 13.125H22.6C25.6 13.125 28 10.875 28 8.0625V7.5H30C31.2 7.5 32 8.25 32 9.375V26.25C32 27.375 32.8 28.125 34 28.125C35.2 28.125 36 27.375 36 26.25V9.375C36 6.1875 33.4 3.75 30 3.75Z" fill="black"/>
<path d="M62 31.875V30C62 26.8125 59.4 24.375 56 24.375H18C14.6 24.375 12 26.8125 12 30V31.875H62Z" fill="black"/>
<path d="M12 35.625V50.625C12 53.8125 14.6 56.25 18 56.25H56C59.4 56.25 62 53.8125 62 50.625V35.625H12ZM49.6 48.75C48.6 48.75 47.6 48.375 46.8 47.625C46 48.375 45 48.75 44 48.75C41.8 48.75 40 47.0625 40 45C40 42.9375 41.8 41.25 44 41.25C45 41.25 46 41.625 46.8 42.375C47.6 41.625 48.6 41.25 49.6 41.25C51.8 41.25 53.6 42.9375 53.6 45C53.6 47.0625 51.8 48.75 49.6 48.75Z" fill="black"/>
</svg>
