<svg width="67" height="60" viewBox="0 0 67 60" fill="none" xmlns="http://www.w3.org/2000/svg">
<g clip-path="url(#clip0)">
<path d="M63.9859 48.75C62.7475 48.75 61.9219 48 61.9219 46.875V22.5C61.9219 21.375 62.7475 20.625 63.9859 20.625C65.2244 20.625 66.05 21.375 66.05 22.5V46.875C66.05 48 65.2244 48.75 63.9859 48.75Z" fill="black"/>
<path d="M33.025 39.375C32.6122 39.375 32.4058 39.375 31.993 39.1875L1.03203 24.1875C0.412813 23.8125 0 23.25 0 22.5C0 21.75 0.412813 21.1875 1.03203 20.8125L31.993 5.8125C32.6122 5.4375 33.2314 5.4375 33.8506 5.8125L64.8116 20.8125C65.4308 21.1875 65.8436 21.75 65.8436 22.5C65.8436 23.25 65.4308 23.8125 64.8116 24.1875L33.8506 39.1875C33.6442 39.375 33.4378 39.375 33.025 39.375Z" fill="black"/>
<path d="M35.9151 42.3749C35.0895 42.9374 34.0574 43.1249 33.0254 43.1249C31.9934 43.1249 30.9613 42.9374 30.1357 42.3749L12.3848 33.9374V41.2499C12.3848 47.0624 22.4987 52.4999 33.0254 52.4999C43.5521 52.4999 53.666 47.0624 53.666 41.2499V33.9374L35.9151 42.3749Z" fill="black"/>
</g>
<defs>
<clipPath id="clip0">
<rect width="66.05" height="60" fill="white"/>
</clipPath>
</defs>
</svg>
