<svg width="96" height="121" viewBox="0 0 96 121" fill="none" xmlns="http://www.w3.org/2000/svg">
<path d="M49.2351 0.00198386C43.9166 0.00329927 38.8164 1.79908 35.0556 4.99456C31.2949 8.19004 29.1815 12.5237 29.1799 17.0428V24.7841H20.0692C17.4336 24.7822 14.8234 25.222 12.388 26.0781C9.95266 26.9343 7.73987 28.1902 5.87626 29.7738C4.01265 31.3573 2.53482 33.2376 1.52731 35.307C0.519803 37.3764 0.00240103 39.5943 0.00470523 41.8338V58.8686H29.1752V74.3512H20.0645C14.7445 74.3506 9.6421 76.1456 5.8794 79.3412C2.1167 82.5369 0.00185838 86.8713 0 91.3917V120.832H20.0739C22.707 120.831 25.314 120.39 27.7462 119.532C30.1783 118.675 32.3878 117.419 34.2487 115.836C36.1095 114.253 37.5851 112.374 38.5913 110.306C39.5974 108.239 40.1144 106.023 40.1127 103.786H40.1384V92.5388L40.0847 92.5448V20.8886L40.1291 20.8975V17.0457C40.1337 14.9919 41.0943 13.023 42.8012 11.5687C44.508 10.1145 46.8226 9.29302 49.2398 9.28358H84.0812V17.0457C84.0738 19.0986 83.1099 21.0655 81.4004 22.5162C79.6909 23.9669 77.3749 24.7834 74.9588 24.787H44.2523V34.0786H74.9541C80.2726 34.0788 85.3734 32.2839 89.1344 29.0888C92.8955 25.8936 95.0087 21.5599 95.0093 17.0408V0L49.2351 0.00198386ZM29.1799 49.576H10.9515V41.8347C10.9555 39.7785 11.9172 37.8072 13.6266 36.3516C15.3359 34.896 17.6539 34.0745 20.0739 34.0667H29.1846L29.1799 49.576ZM29.1799 103.795C29.1759 105.847 28.215 107.816 26.5076 109.267C24.8001 110.72 22.4851 111.539 20.0692 111.544H10.9468V91.3968C10.949 89.3425 11.9112 87.3733 13.6218 85.9216C15.3325 84.4698 17.6515 83.6548 20.0692 83.6556H29.1799V103.795ZM44.2523 58.8675H67.2626V66.6168C67.2537 68.6693 66.2893 70.6354 64.5801 72.0859C62.871 73.5363 60.5558 74.3531 58.1402 74.3581H44.2523V83.6556H58.1449C60.779 83.6568 63.3875 83.2168 65.8213 82.3608C68.2551 81.5049 70.4666 80.2497 72.3291 78.6671C74.1917 77.0844 75.6689 75.2054 76.6763 73.1374C77.6837 71.0694 78.2015 68.853 78.2001 66.6148H78.2094V49.574H44.2523V58.8675Z" fill="#4E4376"/>
</svg>
