<svg width="67" height="61" viewBox="0 0 67 61" fill="none" xmlns="http://www.w3.org/2000/svg">
<path d="M46.4138 29.4438L46.3541 29.2657L43.019 22.2046L42.9878 22.1096L42.9452 21.9785L36.8388 10.1531V20.9219H29.2738H25.4913H21.7088H19.6367V29.4438H46.4138Z" fill="black"/>
<path d="M19.637 31.4744L19.6967 31.6525L23.0317 38.7136L23.063 38.8086L23.1056 38.9397L29.212 50.7651V39.9963H36.777H40.5595H44.3419H46.4141V31.4744H19.637Z" fill="black"/>
<path d="M65.7035 47.0269C65.655 46.1729 65.5403 45.3654 65.3689 44.6697C65.1975 43.9741 64.9741 43.4099 64.7168 43.0228C63.0012 40.4447 59.2363 36.6372 59.2363 36.6372V32.8913L59.3411 32.653C60.072 30.9679 60.5608 28.5028 60.7068 25.7649L60.7279 25.3657H60.8301C61.1061 25.3653 61.3758 25.1172 61.6048 24.6531C61.8338 24.189 62.0118 23.5299 62.116 22.7598C62.2401 22.0838 62.3052 21.3238 62.3052 20.5512C62.3052 20.0192 62.2716 19.4921 62.2063 18.998C62.1735 18.4575 62.0739 17.9748 61.9275 17.6474L61.5801 17.0118L61.6665 15.8757C62.294 7.63309 60.1749 0.208725 57.3295 0.00415691C57.2603 0.000150232 57.1918 -0.00178304 57.1239 0.00215598C57.056 -0.00178304 56.9875 0.000150213 56.9183 0.00414239C54.0729 0.208725 51.9538 7.63309 52.5813 15.8757L52.6677 17.0118L52.3203 17.6474C52.1739 17.9748 52.0742 18.4575 52.0415 18.998C51.9762 19.4921 51.9426 20.0192 51.9426 20.5512C51.9426 21.3238 52.0077 22.0838 52.1318 22.7598C52.236 23.5299 52.414 24.189 52.643 24.6531C52.872 25.1172 53.1417 25.3653 53.4177 25.3657H53.5199L53.541 25.7649C53.687 28.5028 54.1758 30.9679 54.9067 32.653L55.0115 32.8913V36.6372C55.0115 36.6372 51.2466 40.4447 49.531 43.0228C49.2737 43.4098 49.0503 43.974 48.8789 44.6697C48.7075 45.3653 48.5928 46.1729 48.5443 47.0269C48.2503 52.1969 48.1982 60.9182 48.1982 60.9182H66.0496C66.0496 60.9182 65.9975 52.1969 65.7035 47.0269Z" fill="black"/>
<path d="M17.5054 47.0269C17.4568 46.1729 17.3421 45.3654 17.1707 44.6697C16.9993 43.9741 16.7759 43.4099 16.5187 43.0228C14.803 40.4447 11.0381 36.6372 11.0381 36.6372V32.8913L11.1429 32.653C11.8738 30.9679 12.3626 28.5028 12.5086 25.7649L12.5297 25.3657H12.6319C12.9079 25.3653 13.1776 25.1172 13.4066 24.6531C13.6356 24.189 13.8136 23.5299 13.9178 22.7598C14.0419 22.0838 14.107 21.3238 14.107 20.5512C14.107 20.0192 14.0734 19.4921 14.0081 18.998C13.9754 18.4575 13.8757 17.9748 13.7293 17.6474L13.3819 17.0118L13.4683 15.8757C14.0958 7.63309 11.9767 0.208725 9.13133 0.00415691C9.06212 0.000150232 8.99357 -0.00178304 8.92569 0.00215598C8.85779 -0.00178304 8.78925 0.000150213 8.72004 0.00414239C5.87466 0.208725 3.75561 7.63309 4.38309 15.8757L4.46943 17.0118L4.12208 17.6474C3.97567 17.9748 3.87601 18.4575 3.84327 18.998C3.77794 19.4921 3.74439 20.0192 3.74441 20.5512C3.74434 21.3238 3.80944 22.0838 3.93357 22.7598C4.03779 23.5299 4.21576 24.189 4.44478 24.6531C4.6738 25.1172 4.94351 25.3653 5.2195 25.3657H5.32166L5.34276 25.7649C5.48881 28.5028 5.97756 30.9679 6.70843 32.653L6.81324 32.8913V36.6372C6.81324 36.6372 3.04839 40.4447 1.33272 43.0228C1.07547 43.4098 0.852082 43.974 0.68066 44.6697C0.509239 45.3653 0.394601 46.1729 0.346032 47.0269C0.052065 52.1969 0 60.9182 0 60.9182H17.8514C17.8514 60.9182 17.7993 52.1969 17.5054 47.0269Z" fill="black"/>
</svg>
