<svg width="67" height="46" viewBox="0 0 67 46" fill="none" xmlns="http://www.w3.org/2000/svg">
<path d="M50.0432 13.8125H48.041V18.5H50.0432V13.8125Z" fill="black"/>
<path d="M50.0432 26.9375H48.041V31.625H50.0432V26.9375Z" fill="black"/>
<path d="M47.0401 12.875H51.0341V32.5625H52.0352V11.9375H46.0391V32.5625H47.0401V12.875Z" fill="black"/>
<path d="M50.0432 20.375H48.041V25.0625H50.0432V20.375Z" fill="black"/>
<path d="M18.0197 13.8125H16.0176V18.5H18.0197V13.8125Z" fill="black"/>
<path d="M18.0197 26.9375H16.0176V31.625H18.0197V26.9375Z" fill="black"/>
<path d="M18.0197 20.375H16.0176V25.0625H18.0197V20.375Z" fill="black"/>
<path d="M60.0436 43.8125V34.4375H31.0229V43.8125H29.0207V33.5C29.0207 33.2514 29.1295 33.0129 29.323 32.8371C29.5165 32.6613 29.779 32.5625 30.0528 32.5625H44.0368V0.6875H28.0196V26C28.0578 26.1382 28.0607 26.2826 28.0283 26.422C27.9958 26.5614 27.9287 26.6923 27.8322 26.8046C27.7357 26.917 27.6123 27.0079 27.4713 27.0704C27.3303 27.1329 27.1755 27.1654 27.0186 27.1654C26.8617 27.1654 26.7069 27.1329 26.5659 27.0704C26.4249 27.0079 26.3015 26.917 26.2049 26.8046C26.1084 26.6923 26.0414 26.5614 26.0089 26.422C25.9764 26.2826 25.9794 26.1382 26.0175 26V0.6875H22.0132V43.8125H20.0111V11.9375H14.015V43.8125H12.0128V34.4375H6.00642V43.8125H0V45.6875H66.05V43.8125H60.0436ZM15.0161 12.875H19.01V32.5625H15.0161V12.875Z" fill="black"/>
</svg>
