<svg width="64" height="60" viewBox="0 0 64 60" fill="none" xmlns="http://www.w3.org/2000/svg">
<path d="M25.3743 5.01953C25.9087 5.01953 26.3419 4.62602 26.3419 4.14063C26.3419 3.65523 25.9087 3.26172 25.3743 3.26172H20.322C19.7877 3.26172 19.3545 3.65523 19.3545 4.14063C19.3545 4.62602 19.7877 5.01953 20.322 5.01953H25.3743Z" fill="black"/>
<path d="M46.4505 33.7949C46.4628 33.8295 46.4764 33.8636 46.4932 33.8965C47.7376 36.8795 50.914 39.0063 54.6286 39.0063C58.3453 39.0063 61.5236 36.8769 62.7663 33.8911C62.7816 33.8604 62.7945 33.8288 62.806 33.7966C63.1422 32.9563 63.3262 32.0501 63.3262 31.1054C63.3262 28.5239 61.9597 26.1393 59.6528 24.6564C59.0199 22.678 57.0078 21.2275 54.6286 21.2275C52.2494 21.2275 50.2374 22.678 49.6044 24.6562C47.8717 25.7715 46.6677 27.4041 46.1774 29.2383H42.0807V26.4308C42.0807 25.9454 41.6476 25.5519 41.1132 25.5519C40.5789 25.5519 40.1457 25.9454 40.1457 26.4308V29.2383H32.2659C32.2638 29.2383 32.262 29.2385 32.2599 29.2385C31.9774 27.1395 30.8543 25.2102 29.1039 23.8145L40.1456 17.7956V22.6034C40.1456 23.0888 40.5788 23.4823 41.1131 23.4823C41.6474 23.4823 42.0806 23.0888 42.0806 22.6034V19.8633H42.4571C43.7018 19.8633 44.7146 18.9432 44.7146 17.8125V15.305L47.1285 13.9891C48.6415 16.3243 51.436 17.8961 54.6284 17.8961C58.3452 17.8961 61.5235 15.7666 62.7661 12.7808C62.7815 12.7501 62.7944 12.7185 62.8059 12.6864C63.1421 11.846 63.326 10.9398 63.326 9.99516C63.326 7.42078 61.9578 5.02781 59.6522 3.5448C59.019 1.56715 57.0073 0.117188 54.6286 0.117188C52.2494 0.117188 50.2374 1.56773 49.6044 3.54598C47.3008 5.02875 45.931 7.42594 45.931 9.99527C45.931 10.8233 46.0728 11.6218 46.334 12.3724L44.7148 13.2551V10.8984C44.7148 9.7677 43.7019 8.84766 42.4572 8.84766H42.0807V3.33984C42.0807 1.56281 40.4894 0.117188 38.5331 0.117188H14.6684C14.1341 0.117188 13.7009 0.510703 13.7009 0.996094C13.7009 1.48148 14.1341 1.875 14.6684 1.875H38.533C39.4222 1.875 40.1456 2.53207 40.1456 3.33984V6.03516H5.55148V3.33984C5.55148 2.53207 6.27481 1.875 7.16403 1.875H10.4551C10.9894 1.875 11.4226 1.48148 11.4226 0.996094C11.4226 0.510703 10.9895 0.117188 10.4551 0.117188H7.16403C5.20782 0.117188 3.61642 1.56281 3.61642 3.33984V8.84766H3.23999C1.99523 8.84766 0.982422 9.7677 0.982422 10.8984V20.1562C0.982422 21.287 1.99523 22.207 3.23999 22.207H3.61642V24.1992H3.23999C1.99523 24.1992 0.982422 25.1193 0.982422 26.25V28.4766C0.982422 29.6073 1.99523 30.5273 3.23999 30.5273H3.61642V31.4648H3.23999C1.99523 31.4648 0.982422 32.3849 0.982422 33.5156V35.7422C0.982422 36.8729 1.99523 37.793 3.23999 37.793H3.61642V56.8945C3.61642 58.6716 5.20782 60.1172 7.16403 60.1172H38.533C40.4892 60.1172 42.0806 58.6716 42.0806 56.8945V45.5435L47.09 48.2741C46.3412 49.4555 45.931 50.8098 45.931 52.2157C45.931 53.1595 46.1147 54.065 46.4505 54.9049C46.4628 54.9397 46.4766 54.9739 46.4933 55.007C47.7377 57.9899 50.9142 60.1167 54.6287 60.1167C58.3443 60.1167 61.5215 57.9886 62.7652 55.0044C62.7812 54.9727 62.7945 54.9398 62.8064 54.9066C63.1424 54.0663 63.3264 53.1604 63.3264 52.2159C63.3264 49.6414 61.9582 47.2486 59.6526 45.7657C59.0192 43.788 57.0075 42.338 54.6288 42.338C52.2496 42.338 50.2377 43.7885 49.6046 45.7668C49.1053 46.0882 48.6499 46.4527 48.2428 46.8526L42.0809 43.4938V30.9961H45.9331C45.9325 31.0325 45.9313 31.0689 45.9313 31.1054C45.9309 32.0494 46.1147 32.955 46.4505 33.7949ZM54.6286 16.1382C51.8452 16.1382 49.4498 14.6025 48.4137 12.4151C49.1338 10.8973 50.5317 9.68133 52.2332 9.09398C52.9515 9.43148 53.7655 9.62344 54.6284 9.62344C55.4914 9.62344 56.3054 9.43148 57.0237 9.09398C58.7254 9.68121 60.1232 10.8973 60.8433 12.4151C59.8072 14.6025 57.412 16.1382 54.6286 16.1382ZM61.3864 9.85875C60.6527 9.03516 59.7405 8.35348 58.6976 7.85402C59.184 7.30781 59.5392 6.66211 59.7217 5.95629C60.7532 7.02832 61.3511 8.40199 61.3864 9.85875ZM54.6286 1.875C56.4468 1.875 57.9259 3.21867 57.9259 4.87031C57.9259 6.52195 56.4468 7.86563 54.6286 7.86563C52.8104 7.86563 51.3312 6.52195 51.3312 4.87031C51.3312 3.21867 52.8104 1.875 54.6286 1.875ZM49.5355 5.95617C49.7179 6.66199 50.0731 7.30758 50.5594 7.85379C49.5165 8.35324 48.6044 9.03492 47.8706 9.85863C47.9061 8.40445 48.5041 7.02914 49.5355 5.95617ZM50.5617 50.0769C49.5256 50.5788 48.6082 51.2695 47.8701 52.0955C47.9014 50.6352 48.5002 49.2536 49.5355 48.1766C49.7182 48.8836 50.0742 49.5301 50.5617 50.0769ZM54.6286 58.3588C51.8452 58.3588 49.45 56.823 48.4138 54.6356C49.1342 53.1172 50.5314 51.9019 52.2334 51.3145C52.9517 51.652 53.7657 51.844 54.6287 51.844C55.4926 51.844 56.3076 51.6517 57.0264 51.3135C58.7312 51.9021 60.1216 53.1121 60.8433 54.636C59.8071 56.823 57.4118 58.3588 54.6286 58.3588ZM61.387 52.0943C60.6492 51.2679 59.733 50.5787 58.6953 50.0771C59.1828 49.5304 59.539 48.8836 59.7217 48.1766C60.7568 49.2525 61.3554 50.6319 61.387 52.0943ZM54.6286 44.0954C56.4468 44.0954 57.9259 45.4391 57.9259 47.0907C57.9259 48.7424 56.4468 50.0861 54.6286 50.0861C52.8104 50.0861 51.3312 48.7424 51.3312 47.0907C51.3312 45.4391 52.8104 44.0954 54.6286 44.0954ZM30.3953 30.2876C30.3953 30.3289 30.3927 30.3697 30.3918 30.411C29.5351 29.392 28.4339 28.5491 27.1758 27.9589C27.782 27.3073 28.2136 26.5179 28.4039 25.65C29.6707 26.9018 30.3953 28.5488 30.3953 30.2876ZM15.3019 30.2876C15.3019 28.5489 16.0265 26.9018 17.2932 25.65C17.4836 26.5179 17.9152 27.3074 18.5213 27.9591C17.263 28.5493 16.1617 29.3925 15.3048 30.4116C15.3041 30.3702 15.3019 30.3289 15.3019 30.2876ZM19.1186 24.6428C19.1186 22.7745 20.7919 21.2544 22.8486 21.2544C24.9053 21.2544 26.5786 22.7745 26.5786 24.6428C26.5786 26.5111 24.9053 28.0311 22.8486 28.0311C20.7919 28.0311 19.1186 26.5112 19.1186 24.6428ZM42.7797 17.8125C42.7797 17.974 42.635 18.1055 42.4572 18.1055H42.0807V16.7408L42.7797 16.3598V17.8125ZM42.4572 10.6055C42.635 10.6055 42.7797 10.737 42.7797 10.8984V14.3099L42.0807 14.6909V10.6055H42.4572ZM3.23999 20.4492C3.06222 20.4492 2.91748 20.3177 2.91748 20.1562V10.8984C2.91748 10.737 3.06222 10.6055 3.23999 10.6055H3.61642V20.4492H3.23999ZM3.23999 28.7695C3.06222 28.7695 2.91748 28.638 2.91748 28.4766V26.25C2.91748 26.0885 3.06222 25.957 3.23999 25.957H3.61642V28.7695H3.23999ZM3.23999 36.0352C3.06222 36.0352 2.91748 35.9037 2.91748 35.7422V33.5156C2.91748 33.3541 3.06222 33.2227 3.23999 33.2227H3.61642V36.0352H3.23999ZM38.533 58.3594H7.16403C6.27481 58.3594 5.55148 57.7023 5.55148 56.8945V54.1992H40.1456V56.8945C40.1456 57.7023 39.4222 58.3594 38.533 58.3594ZM40.1456 52.4414H5.55148V7.79297H40.1456V15.7457L27.9444 22.3965C27.0244 20.6815 25.0862 19.4967 22.8485 19.4967C20.2605 19.4967 18.0739 21.0819 17.3995 23.2391C14.8714 24.8542 13.3668 27.4762 13.3668 30.2877C13.3668 31.2823 13.5585 32.263 13.9225 33.1874C13.9382 33.2388 13.9585 33.2887 13.984 33.3367C14.3594 34.2369 14.8988 35.081 15.5897 35.8273C15.781 36.034 16.0549 36.1405 16.3307 36.1405C16.5505 36.1405 16.7715 36.0728 16.9528 35.9343C17.3618 35.6218 17.4146 35.0674 17.0706 34.6959C16.5825 34.1686 16.189 33.5798 15.8976 32.953C16.7031 31.2272 18.2833 29.8528 20.2159 29.1975C21.0031 29.5745 21.8985 29.7891 22.8485 29.7891C23.7984 29.7891 24.694 29.5745 25.4812 29.1975C27.4148 29.8532 28.9951 31.2282 29.8004 32.9554C28.6526 35.4141 25.9687 37.1432 22.8486 37.1432C21.9239 37.1432 21.0179 36.9914 20.1556 36.6921C19.6565 36.5188 19.0973 36.7459 18.9065 37.1993C18.7157 37.6528 18.9657 38.1608 19.4649 38.3341C20.5483 38.7103 21.6869 38.901 22.8486 38.901C24.6126 38.901 26.2647 38.4598 27.6809 37.6943L40.1456 44.4887V52.4414ZM40.1456 42.4386L29.3461 36.5518C30.386 35.6612 31.2051 34.5609 31.7197 33.3251C31.7368 33.2916 31.7508 33.2569 31.7631 33.2216C32.0448 32.5178 32.2258 31.7711 32.2957 30.996H40.1456V42.4386ZM54.6286 37.2485C51.8452 37.2485 49.45 35.7128 48.4138 33.5255C49.1349 32.0044 50.5286 30.7918 52.2319 30.2037C52.9505 30.5416 53.765 30.7337 54.6286 30.7337C55.492 30.7337 56.3067 30.5415 57.0252 30.2037C58.7287 30.792 60.1223 32.0044 60.8433 33.5256C59.8072 35.7128 57.4118 37.2485 54.6286 37.2485ZM61.387 30.9847C60.6491 30.1586 59.7331 29.4676 58.6962 28.9658C59.1834 28.419 59.5394 27.7725 59.7219 27.0656C60.7574 28.1405 61.3556 29.518 61.387 30.9847ZM54.6286 22.9853C56.4468 22.9853 57.9259 24.3289 57.9259 25.9806C57.9259 27.6322 56.4468 28.9759 54.6286 28.9759C52.8104 28.9759 51.3312 27.6322 51.3312 25.9806C51.3312 24.3289 52.8104 22.9853 54.6286 22.9853ZM49.5355 27.0664C49.718 27.773 50.0738 28.4193 50.561 28.9658C49.524 29.4676 48.6081 30.1587 47.8701 30.9848C47.9015 29.5247 48.5004 28.1433 49.5355 27.0664Z" fill="black"/>
</svg>
