<svg width="67" height="60" viewBox="0 0 67 60" fill="none" xmlns="http://www.w3.org/2000/svg">
<g clip-path="url(#clip0)">
<path d="M47.1441 15.5049C47.3848 15.923 47.6072 16.3761 47.8148 16.8592H48.9137V20.3922C49.5001 23.0591 49.7924 26.3451 49.7968 30.3115C49.7968 31.8358 49.752 33.4796 49.6643 35.1987C49.6269 35.9252 49.345 36.5731 48.9137 37.0432V56.8287C48.9137 58.5552 50.1451 59.9538 51.6632 59.9538C53.1817 59.9538 54.4131 58.5552 54.4131 56.8287V34.0103H55.4438V56.8287C55.4438 58.5552 56.6752 59.9538 58.1933 59.9538C59.7118 59.9538 60.9432 58.5552 60.9432 56.8287V18.9233C61.0748 19.2307 61.2077 19.583 61.3389 19.9942C61.9653 21.9688 62.493 25.209 62.4904 30.2664C62.4908 31.6601 62.4513 33.1918 62.3653 34.8732C62.308 35.988 63.0572 36.9449 64.038 37.0096C64.0732 37.012 64.1084 37.013 64.1431 37.013C65.0787 37.013 65.8632 36.183 65.9183 35.1082C66.0074 33.3558 66.0486 31.747 66.0495 30.2664C66.04 22.6373 64.9679 18.4146 63.5059 15.8759C62.7758 14.6154 61.9205 13.8072 61.1313 13.3593C60.3712 12.9235 59.7031 12.8254 59.3022 12.8197C59.2761 12.8185 59.2505 12.8152 59.2245 12.8152H44.6592C45.3446 13.2349 46.2889 14.0306 47.1441 15.5049Z" fill="black"/>
<path d="M55.7309 11.3005C58.4588 10.7973 60.3113 7.87584 59.8686 4.77527C59.4258 1.67471 56.8556 -0.43087 54.1277 0.0723319C51.3999 0.575534 49.5474 3.49696 49.9901 6.59753C50.4328 9.69809 53.0031 11.8037 55.7309 11.3005Z" fill="black"/>
<path d="M34.0447 44.4059H31.9941V56.8749C31.9941 58.3261 32.8659 59.5423 34.0447 59.8941V59.6559V44.4059Z" fill="black"/>
<path d="M26.4746 32.6298C26.4668 32.325 26.4612 32.026 26.456 31.7282L24.2686 33.4125H25.4583L26.4746 32.6298Z" fill="black"/>
<path d="M31.9077 30.4956L31.543 30.785L33.9888 34.7664L34.3535 34.4769L31.9077 30.4956Z" fill="black"/>
<path d="M30.9513 33.4124H31.1342V33.8559L32.154 35.5159H32.6961L30.9248 32.6329C30.9322 32.8898 30.9413 33.1508 30.9513 33.4124Z" fill="black"/>
<path d="M30.0229 33.4124H30.5067C30.4664 32.3121 30.4459 31.2768 30.4459 30.3125C30.4459 27.8326 30.5706 25.7892 30.7739 24.1178C30.7739 24.1178 30.7739 24.1174 30.7739 24.1172C31.0701 21.6632 31.5362 20.0336 31.9944 18.9663V27.3157V27.4647L31.3273 27.9783L30.9211 28.2911C30.9116 28.5965 30.9051 28.9078 30.8998 29.2234L32.4023 28.0667L36.3932 34.764L35.4163 35.5159H40.9947V40.7397H39.0488V58.705C39.5483 59.4885 40.358 60 41.274 60C42.7925 60 44.0239 58.6013 44.0239 56.8748V18.9687C44.156 19.2763 44.2889 19.6288 44.4201 20.0403C45.0468 22.0153 45.5742 25.255 45.572 30.313C45.5724 31.7067 45.5329 33.2379 45.4464 34.9195C45.3891 36.0337 46.1379 36.9905 47.1187 37.0557C47.1539 37.0577 47.1891 37.0592 47.2238 37.0592C48.1595 37.0592 48.9435 36.2297 48.9986 35.1545C49.0881 33.4028 49.1302 31.7931 49.1302 30.313C49.1215 22.6833 48.0491 18.4612 46.5875 15.9221C45.8569 14.6617 45.0021 13.8532 44.2124 13.4055C43.4562 12.9717 42.7917 12.8725 42.3899 12.8666C42.3616 12.8648 42.3338 12.8616 42.3052 12.8616H41.2345L40.715 17.4795L38.5467 14.5094L39.855 12.8616H36.1638L37.4721 14.5094L35.3038 17.4795L34.7839 12.8616H33.7132C33.6919 12.8616 33.6715 12.8641 33.6506 12.8651C32.9908 12.8535 31.5153 13.1835 30.2227 14.7757C28.9066 16.3811 27.8007 19.0413 27.2495 23.5638C27.2495 23.5642 27.2491 23.5645 27.2491 23.5648H27.2486C27.0197 25.4542 26.8877 27.6786 26.8877 30.3125C26.8877 31.2861 26.9077 32.3223 26.9459 33.4124H30.0229Z" fill="black"/>
<path d="M38.0087 11.421C40.7722 11.421 43.0125 8.87467 43.0125 5.73358C43.0125 2.5925 40.7722 0.0461426 38.0087 0.0461426C35.2452 0.0461426 33.0049 2.5925 33.0049 5.73358C33.0049 8.87467 35.2452 11.421 38.0087 11.421Z" fill="black"/>
<path d="M23.4162 34.6763C23.4522 35.1222 23.3697 35.5591 23.1934 35.9402H30.0232V34.6763H23.4162Z" fill="black"/>
<path d="M17.3656 56.7077V40.1942L14.7525 40.1599L12.1563 40.1258C12.1837 38.8925 12.3318 37.6326 12.5295 36.4142C11.623 35.8523 10.9562 35.2238 10.5184 34.7353C9.27135 33.3569 8.71451 32.0121 8.53295 31.4981C8.33573 30.9136 8.35052 30.2952 8.56855 29.7408C8.78661 29.1856 9.18186 28.7603 9.68095 28.5436C9.91115 28.4436 10.1514 28.393 10.3959 28.393C11.2216 28.393 11.95 28.9556 12.2554 29.8262C12.2584 29.8348 12.2628 29.845 12.2671 29.8563L12.2867 29.9052C12.3166 29.9768 12.3731 30.1019 12.4561 30.2592C12.6137 30.5591 12.8891 31.0113 13.3035 31.4668C13.3582 31.5253 13.4168 31.5856 13.4776 31.6466C14.0037 29.6418 13.2904 27.3289 11.6412 26.9331C9.95242 26.528 7.48267 27.5122 6.44108 30.5097C5.03245 34.64 4.70409 37.3186 5.15321 41.8338C5.72829 45.1016 7.91399 45.4025 9.7335 45.3487C9.79606 45.3467 9.85728 45.3447 9.91766 45.3422L15.2029 45.4116L15.0439 46.2008H3.82494C4.07991 38.9266 3.60864 31.6282 2.40286 24.4466C1.60192 24.6204 0.800962 24.7939 0 24.9677C1.87295 36.1268 1.92637 47.5777 0.172019 58.7551H2.65697C2.83592 57.5782 2.99098 56.3982 3.13128 55.2163H12.2315V58.7551H14.6778V57.3409C14.8203 57.4155 14.971 57.475 15.1299 57.5164C15.3033 57.5618 15.477 57.5836 15.6477 57.5836C16.0195 57.5836 16.3779 57.4789 16.698 57.2923C16.949 57.1457 17.1762 56.9484 17.3656 56.7077ZM12.2315 53.6996H3.30025C3.46445 52.1297 3.59388 50.5567 3.68944 48.9813H12.2315V53.6996Z" fill="black"/>
<path d="M7.56152 20.7964C7.56152 23.7152 9.64341 26.082 12.2118 26.082C14.7801 26.082 16.8615 23.7152 16.8615 20.7964C16.8615 17.8769 14.7801 15.5109 12.2118 15.5109C9.64341 15.5109 7.56152 17.8769 7.56152 20.7964Z" fill="black"/>
<path d="M20.5905 59.6561V43.1418H35.1571V59.6561H37.937V39.4761H39.8829V36.78H22.5282C22.3596 36.9071 22.1715 37.0076 21.9665 37.0735C20.4367 37.5632 18.9721 37.8118 17.613 37.8118H17.5674C16.9606 37.8118 16.3955 37.7565 15.8643 37.6664V39.4761H17.8102V59.6561H20.5905Z" fill="black"/>
<path d="M17.567 37.306C17.5822 37.306 17.5974 37.306 17.6126 37.306C18.8801 37.306 20.2878 37.0858 21.8459 36.5867C22.6733 36.3213 23.155 35.3441 22.9218 34.4038C22.6885 33.4631 21.8285 32.9153 21.0015 33.1807C19.6832 33.6023 18.5626 33.7667 17.6126 33.7667C15.2302 33.7526 13.8811 32.7825 12.9946 31.8304C12.5589 31.3517 12.2583 30.8684 12.0746 30.5191C11.9825 30.3446 11.9195 30.2044 11.883 30.1177C11.8652 30.0738 11.8539 30.0437 11.8479 30.0296C11.8452 30.0222 11.8448 30.02 11.8448 30.02L11.8444 30.0202C11.5321 29.118 10.6382 28.6687 9.83982 29.016C9.0367 29.3646 8.63493 30.3875 8.94201 31.3009V31.3002C8.99631 31.4534 9.48929 32.8931 10.8301 34.3742C12.1515 35.8489 14.3954 37.306 17.567 37.306Z" fill="black"/>
</g>
<defs>
<clipPath id="clip0">
<rect width="66.05" height="60" fill="white"/>
</clipPath>
</defs>
</svg>
