<svg width="58" height="57" viewBox="0 0 58 57" fill="none" xmlns="http://www.w3.org/2000/svg">
<path d="M13.756 8.81219C12.9141 9.88499 12.1488 11.111 11.46 12.3371C13.603 13.6398 16.0521 14.7126 18.6543 15.4789C18.7308 15.0191 18.8074 14.5593 18.8839 14.1762C19.8023 9.88499 21.0269 6.36008 22.6341 3.67809C23.1699 2.75855 23.7821 1.99227 24.3944 1.30261C23.0168 1.68575 21.7922 2.22215 20.4911 2.91181C17.9655 4.29112 15.6694 6.28345 13.756 8.81219Z" fill="black"/>
<path d="M19.9552 17.2413C19.4194 20.4597 19.1133 24.0613 19.1133 27.7394H38.2471C38.2471 23.9846 37.941 20.4597 37.4052 17.2413C34.65 17.931 31.7416 18.2375 28.6802 18.2375C25.6188 18.3141 22.7104 17.931 19.9552 17.2413Z" fill="black"/>
<path d="M28.3741 38.7739C31.512 38.7739 34.5734 39.1571 37.4052 39.8467C37.941 36.6283 38.2471 33.1034 38.2471 29.3486H19.1133C19.1133 33.0268 19.4194 36.5517 19.9552 39.7701C22.6339 39.0804 25.4657 38.7739 28.3741 38.7739Z" fill="black"/>
<path d="M7.55664 27.816H17.5828C17.6593 23.908 17.9654 20.2298 18.5012 16.8582C16.3582 16.2451 14.2918 15.4022 12.4549 14.4827C11.9192 14.1762 11.3834 13.9463 10.9242 13.6398C8.85774 17.7011 7.63318 22.5287 7.55664 27.816Z" fill="black"/>
<path d="M10.7715 43.3716C13.0675 41.9923 15.6697 40.9195 18.425 40.1532C17.8893 36.8582 17.5831 33.1801 17.5831 29.3486H7.48047C7.63354 34.4827 8.78157 39.3103 10.7715 43.3716Z" fill="black"/>
<path d="M30.3638 1.22601C29.828 0.919492 29.2157 0.766235 28.68 0.766235C28.1442 0.766235 27.532 0.919492 26.9962 1.22601C26.3839 1.53252 25.8482 2.06892 25.2359 2.75857C24.0879 4.06125 23.0164 6.13022 22.098 8.65896C21.3326 10.8045 20.7203 13.2567 20.1846 15.9386C22.8633 16.6283 25.6951 16.9348 28.68 16.9348C31.6649 16.9348 34.4967 16.5517 37.1754 15.9386C37.0989 15.4789 37.0223 15.0191 36.8693 14.5593C36.0274 10.4214 34.8028 6.97313 33.3486 4.59765C32.4302 2.91183 31.3587 1.7624 30.3638 1.22601Z" fill="black"/>
<path d="M20.4149 42.6819C21.2568 46.8199 22.4814 50.2681 23.9355 52.6436C24.9305 54.2528 25.9254 55.3256 26.9204 55.9386C27.5327 56.2451 28.0684 56.3984 28.6042 56.3984C29.1399 56.3984 29.7522 56.2451 30.288 55.9386C30.9002 55.6321 31.436 55.0957 32.0483 54.4061C33.1963 53.1034 34.2678 51.0344 35.1862 48.5057C35.9516 46.3601 36.5639 43.908 37.0996 41.226C34.3443 40.5363 31.3595 40.1532 28.298 40.1532C25.3897 40.1532 22.6344 40.4597 20.0322 41.0727C20.2618 41.6091 20.3384 42.1455 20.4149 42.6819Z" fill="black"/>
<path d="M12.5319 49.272C11.6135 48.0459 10.7716 46.8199 10.0062 45.4406C9.01129 46.1302 8.09287 46.8199 7.25098 47.5861C10.6951 51.4942 15.2107 54.4827 20.4151 56.0153C20.1855 55.9386 19.9558 55.7854 19.7262 55.7087C17.0475 54.0996 14.5984 51.954 12.5319 49.272Z" fill="black"/>
<path d="M34.7271 53.4866C34.1914 54.4061 33.5791 55.1724 32.9668 55.862C34.2679 55.4789 35.569 54.9425 36.8701 54.2528C39.3958 52.8735 41.6918 50.8812 43.6052 48.3525C44.4471 47.2797 45.2125 46.1302 45.9013 44.9042C43.7583 43.6015 41.3857 42.5287 38.7835 41.6858C38.7069 42.1456 38.6304 42.6053 38.5539 42.9885C37.5589 47.203 36.3344 50.8046 34.7271 53.4866Z" fill="black"/>
<path d="M8.8581 10.5746C9.24078 10.8811 9.69999 11.1876 10.0827 11.4942C12.5318 7.12634 15.8228 3.67806 19.7261 1.53247C19.9557 1.37921 20.1853 1.30258 20.4149 1.22595C15.3636 2.75852 10.9246 5.6704 7.48047 9.50181C7.93968 9.80833 8.39889 10.1915 8.8581 10.5746Z" fill="black"/>
<path d="M6.40871 46.5134C6.86792 46.1302 7.32714 45.7471 7.78635 45.364C8.3221 44.9808 8.85784 44.5977 9.39359 44.2145C7.32714 39.8467 6.02603 34.7892 5.9495 29.3486H0.132812C0.285883 35.862 2.58194 41.7624 6.40871 46.5134Z" fill="black"/>
<path d="M37.6351 1.53247C40.3904 3.06503 42.8395 5.21063 44.8294 7.89262C45.6713 9.04204 46.5132 10.2681 47.202 11.5708C48.197 10.8811 49.0389 10.1915 49.8808 9.50181C46.4367 5.6704 41.9976 2.75852 36.9463 1.22595C37.1759 1.30258 37.4055 1.37921 37.6351 1.53247Z" fill="black"/>
<path d="M18.6546 41.5325C16.5882 42.1455 14.5983 42.9118 12.7614 43.8313C12.3022 44.0612 11.843 44.2911 11.3838 44.5976C13.6798 48.8888 16.8178 52.2604 20.4915 54.2528C21.7161 54.9424 23.0172 55.4788 24.3948 55.862C24.2417 55.7087 24.1652 55.6321 24.0121 55.4788C22.711 53.9463 21.563 51.724 20.568 49.1187C19.8027 46.8965 19.1139 44.2911 18.6546 41.5325Z" fill="black"/>
<path d="M47.8906 12.7202C50.0336 17.0881 51.3347 22.2222 51.4878 27.7394H57.2279C57.0749 21.1494 54.7023 15.1723 50.799 10.4214C50.3398 10.8812 49.804 11.2643 49.2683 11.6474C48.809 12.0306 48.3498 12.4137 47.8906 12.7202Z" fill="black"/>
<path d="M50.7228 46.8199C54.6261 42.069 57.0752 36.0153 57.2283 29.4253H51.4116C51.3351 35.0192 50.034 40.1533 47.8145 44.5211C48.8859 45.2107 49.8044 45.977 50.7228 46.8199Z" fill="black"/>
<path d="M5.9495 27.8161C6.02603 22.2988 7.32714 17.1647 9.54666 12.7969C8.47517 12.1072 7.48021 11.341 6.56178 10.498C2.65848 15.249 0.285883 21.226 0.132812 27.8161H5.9495Z" fill="black"/>
<path d="M44.6767 42.6053C45.289 42.9118 45.9012 43.295 46.437 43.6015C48.4269 39.4636 49.6515 34.5594 49.8045 29.3486H39.8549C39.8549 33.2567 39.4723 36.9348 38.9365 40.3065C41.003 40.9195 42.9164 41.6858 44.6767 42.6053Z" fill="black"/>
<path d="M37.6351 55.6321C37.4055 55.7854 37.1759 55.862 36.9463 55.9386C41.9211 54.406 46.3601 51.5708 49.8042 47.816C49.2685 47.3562 48.7327 46.8965 48.197 46.4367C47.8908 46.2068 47.5082 45.9003 47.202 45.6704C44.7529 50.0382 41.4619 53.4865 37.6351 55.6321Z" fill="black"/>
<path d="M32.9668 1.30261C33.0433 1.45587 33.1964 1.5325 33.2729 1.68575C34.574 3.21832 35.7221 5.44054 36.717 8.04591C37.4824 10.1915 38.1712 12.7202 38.6304 15.4789C40.6203 14.8658 42.5337 14.0995 44.294 13.2566C44.8298 12.9501 45.3655 12.7202 45.8247 12.4137C43.5287 8.19916 40.3907 4.90414 36.7936 2.91181C35.6455 2.22215 34.3444 1.68575 32.9668 1.30261Z" fill="black"/>
<path d="M39.8546 27.816H49.8807C49.8042 22.6053 48.5796 17.7011 46.5897 13.6398C44.2936 15.0191 41.768 16.0919 39.0127 16.9348C39.4719 20.2298 39.778 23.908 39.8546 27.816Z" fill="black"/>
</svg>
